# xmcd
#
# Track frame offsets: 
#        150
#        27582
#        45490
#
# Disc length: 944 seconds
#
# Revision: 0
# Processed by: cddbd v1.5.2PL0 Copyright (c) Steve Scherf et al.
# Submitted via: ExactAudioCopy v0.99pb4
#
DISCID=1e03ae03
DTITLE=South - Paint The Silence
DYEAR=2000
DGENRE=Indie
TTITLE0=Paint The Silence
TTITLE1=Save Your Sorrow
TTITLE2=Broken Head (Jagz Kooner Remix)
EXTD=
EXTT0=
EXTT1=
EXTT2=
PLAYORDER=
